<?xml version="1.0" encoding="UTF-8"?> <svg xmlns="http://www.w3.org/2000/svg" width="205" height="101" viewBox="0 0 205 101" fill="none"><path d="M202.885 87.8709C189.872 82.0283 176.114 78.229 161.613 76.2567C166.596 71.8011 171.801 66.2495 173.437 59.9688C174.775 56.9748 172.843 52.592 175 49.9616C179.833 50.4724 183.998 49.3035 187.864 47.8438C189.872 46.8221 191.88 44.8498 191.061 42.0739C186.822 32.3594 176.486 23.6665 165.405 23.6665C159.754 13.8065 151.424 1.75419 139.154 0C139.154 7.52403 144.06 13.81 148.076 20.3834C150.233 24.0354 155.458 27.0862 156.78 30.6513L148.749 38.9309C121.604 34.4772 90.4473 29.8744 62.5599 36.3023C59.6854 32.0632 53.9908 32.3434 50.81 33.6719C47.8359 35.2789 45.8277 38.2729 45.9764 41.5596C45.8277 46.0151 49.6954 48.9364 53.487 50.4706C50.6614 55.2188 50.3642 60.9887 47.613 65.7369C42.482 67.3438 38.3171 70.9959 33.6321 73.6263C29.5415 73.1155 25.527 72.6029 21.3621 72.092C13.5542 78.8853 3.10934 91.3846 1.50717 94.1515C-0.0949977 96.9185 -0.87252 98.3889 1.50717 99.9214C10.2085 101.674 15.0422 91.1558 21.8822 86.7729C60.5517 78.2273 107.029 73.4791 146.07 84.6552C160.794 91.3757 178.643 90.8631 194.258 95.1732C197.381 95.4659 202.438 97.291 204.446 93.6389C205.562 91.6684 204.968 89.1852 202.885 87.8709ZM173.939 33.9309C175.453 33.9309 176.68 35.1317 176.68 36.6127C176.68 38.0938 175.453 39.2945 173.939 39.2945C172.426 39.2945 171.199 38.0938 171.199 36.6127C171.199 35.1317 172.426 33.9309 173.939 33.9309Z" fill="white"></path></svg> 